<svg xmlns="http://www.w3.org/2000/svg" version="1.1" xmlns:xlink="http://www.w3.org/1999/xlink" xmlns:svgjs="http://svgjs.dev/svgjs" width="1500" height="1500" viewBox="0 0 1500 1500"><rect width="1500" height="1500" fill="#000000"></rect><g transform="matrix(0.6666666666666666,0,0,0.6666666666666666,249.39393939393938,605.7715867407849)"><svg viewBox="0 0 396 114" data-background-color="#ffffff" preserveAspectRatio="xMidYMid meet" height="431" width="1500" xmlns="http://www.w3.org/2000/svg" xmlns:xlink="http://www.w3.org/1999/xlink"><g id="tight-bounds" transform="matrix(1,0,0,1,0.2400000000000091,0.22287393811089373)"><svg viewBox="0 0 395.52 113.5542521237782" height="113.5542521237782" width="395.52"><g><svg viewBox="0 0 580.1067425740255 166.549320653708" height="113.5542521237782" width="395.52"><g transform="matrix(1,0,0,1,184.58674257402555,23.018032015092786)"><svg viewBox="0 0 395.52 120.51325662352244" height="120.51325662352244" width="395.52"><g id="textblocktransform"><svg viewBox="0 0 395.52 120.51325662352244" height="120.51325662352244" width="395.52" id="textblock"><g><svg viewBox="0 0 395.52 76.40514885171534" height="76.40514885171534" width="395.52"><g transform="matrix(1,0,0,1,0,0)"><svg width="395.52" viewBox="0.95 -33.67 258.29 49.910000000000004" height="76.40514885171534" data-palette-color="#000000"><path d="M6.93 0.17L6.93 0.17 6.93 11.3Q6.93 13.38 7.41 14.04 7.89 14.7 9.67 15.19L9.67 15.19 10.28 15.36 10.28 16.24 1 16.24 1 15.33Q2.95 14.99 3.47 14.31 3.98 13.62 3.98 12.62L3.98 12.62 3.98-14.72Q3.98-16.38 3.81-16.77L3.81-16.77Q3.44-17.63 1.07-17.63L1.07-17.63 0.95-18.46 6.93-19.97 6.93-18.26Q9.45-20.09 12.62-20.09L12.62-20.09Q16.11-20.09 18.6-17.52 21.09-14.94 21.09-10.12 21.09-5.3 18.29-2.37L18.29-2.37Q15.28 0.78 11.23 0.81L11.23 0.81Q9.18 0.81 6.93 0.17ZM6.96-16.28L6.93-2.27Q8.72-1.07 11.01-1.07L11.01-1.07Q13.7-1.07 15.91-2.97 18.12-4.86 18.12-9.11L18.12-9.11Q18.12-12.92 16.66-14.81 15.21-16.7 13.79-17.3 12.38-17.9 10.96-17.82L10.96-17.82Q8.98-17.72 6.96-16.28L6.96-16.28ZM23.63-32.1L29.49-33.67 29.49-5.54Q29.49-3.34 29.64-2.83L29.64-2.83Q29.9-1.86 31.08-1.37L31.08-1.37Q31.71-1.12 32.71-0.9L32.71-0.9 32.71 0 23.51 0 23.51-0.9Q23.65-0.95 24.56-1.12L24.56-1.12Q26.58-1.54 26.58-4.05L26.58-4.05 26.58-28.69Q26.58-30.18 26.39-30.54L26.39-30.54Q25.97-31.32 23.75-31.32L23.75-31.32 23.63-32.1ZM52.51-2.78L53.34-2.08Q53.29-1.95 52.99-1.49 52.68-1.03 52.2-0.51 51.73 0 51.12 0.4 50.51 0.81 49.85 0.81L49.85 0.81Q48.9 0.81 48.31 0.37 47.72-0.07 47.38-0.73 47.04-1.39 46.89-2.14 46.75-2.88 46.7-3.47L46.7-3.47Q46.53-3.32 46.06-2.64 45.6-1.95 44.82-1.18 44.04-0.42 42.9 0.2 41.77 0.81 40.28 0.81L40.28 0.81Q39.55 0.81 38.75 0.61 37.96 0.42 37.32-0.06 36.69-0.54 36.27-1.35 35.86-2.17 35.86-3.39L35.86-3.39Q35.86-5.13 37.01-6.27 38.15-7.42 39.86-8.08 41.57-8.74 43-9.05 44.43-9.35 46.41-9.74L46.41-9.74 46.41-13.82Q46.41-14.36 46.37-15.17 46.33-15.99 46.08-16.76 45.82-17.53 45.25-18.08 44.67-18.63 43.6-18.63L43.6-18.63Q42.28-18.63 41.44-18.12 40.6-17.6 40.2-17.19 39.81-16.77 39.13-15.97L39.13-15.97Q38.3-15.87 37.82-16 37.35-16.14 37.04-16.42 36.74-16.7 36.74-17.19L36.74-17.19Q36.74-17.9 37.81-18.53 38.89-19.17 40.61-19.67 42.33-20.17 43.87-20.17L43.87-20.17Q45.26-20.17 46.21-19.76 47.16-19.36 47.77-18.66 48.38-17.97 48.7-17.05 49.02-16.14 49.15-15.11 49.29-14.09 49.3-13.01 49.31-11.94 49.31-10.94L49.31-10.94Q49.31-9.08 49.26-7.32 49.21-5.57 49.29-4.19 49.36-2.81 49.67-1.97 49.97-1.12 50.68-1.12L50.68-1.12Q51.58-1.12 52.51-2.78L52.51-2.78ZM46.41-6.13L46.41-8.13Q44.43-7.84 43.02-7.47 41.62-7.1 40.8-6.54 39.99-5.98 39.56-5.29 39.13-4.59 39.13-3.59L39.13-3.59Q39.13-1.15 41.28-1.15L41.28-1.15Q42.06-1.15 42.89-1.71 43.72-2.27 44.43-3.06 45.14-3.86 45.67-4.71 46.21-5.57 46.41-6.13L46.41-6.13ZM67.69-17.9L67.69-17.9Q64.2-17.9 61.56-16.04L61.56-16.04 61.56-5.1Q61.56-2.86 61.88-2.19 62.2-1.51 63.37-1.27L63.37-1.27 64.81-1 64.81 0 55.56 0 55.56-1.03 57.24-1.39Q58.15-1.59 58.37-1.95L58.37-1.95Q58.56-2.37 58.56-3.74L58.56-3.74 58.56-14.72Q58.56-16.48 58.24-16.94L58.24-16.94Q57.66-17.6 55.68-17.63L55.68-17.63 55.56-18.46 61.56-19.97 61.56-17.82Q65.72-20.09 68.67-20.09L68.67-20.09Q72.38-20.09 73.67-16.77L73.67-16.77Q74.31-15.16 74.31-12.84L74.31-12.84 74.31-5.05Q74.31-2.81 74.64-2.14 74.97-1.46 76.09-1.25L76.09-1.25 77.53-0.95 77.53 0 68.3 0 68.3-1 69.96-1.34Q70.89-1.54 71.09-1.93L71.09-1.93Q71.28-2.34 71.28-3.71L71.28-3.71 71.28-12.06Q71.23-17.85 67.69-17.9ZM90.3-19.58L90.3-17.75 85.22-17.75 85.22-8.03Q85.22-5.93 85.27-4.09 85.32-2.25 85.84-1.57 86.37-0.9 87.37-0.9L87.37-0.9Q89.15-0.9 91.18-1.88L91.18-1.88 91.18-0.56Q88.59 0.81 86.76 0.81L86.76 0.81Q85.02 0.81 84.08 0.23 83.14-0.34 82.72-1.26 82.29-2.17 82.22-3.32 82.14-4.47 82.14-5.62L82.14-5.62 82.14-16.09Q82.14-16.63 82.13-16.92 82.12-17.21 82.03-17.43 81.95-17.65 81.63-17.7 81.31-17.75 80.68-17.75L80.68-17.75 79.31-17.75 79.31-18.9Q81.66-19.9 82.53-20.83 83.41-21.75 84.41-24.05L84.41-24.05 85.22-24.05 85.22-19.58 90.3-19.58ZM102.06-20.17L102.06-20.17Q106.75-20.17 107.95-16.5L107.95-16.5Q108.48-14.84 108.24-13.26L108.24-13.26 96.55-13.26Q96.23-11.5 96.23-9.99L96.23-9.99Q96.23-4.83 99.3-2.95L99.3-2.95Q100.94-1.95 103.23-1.95L103.23-1.95Q105.63-1.95 108.04-3.71L108.04-3.71 108.75-2.98 108.07-2.17Q105.29 0.73 101.48 0.76L101.48 0.76Q99.21 0.76 97.28-0.61L97.28-0.61Q93.4-3.37 93.4-8.96L93.4-8.96Q93.4-14.87 96.69-17.92L96.69-17.92Q99.18-20.09 102.06-20.17ZM96.79-14.84L96.79-14.84 105.09-14.84Q105.09-16.77 104.21-17.71 103.33-18.65 101.97-18.65L101.97-18.65Q99.84-18.65 98.5-17.4 97.16-16.14 96.79-14.84ZM111.73-8.72L111.73-8.72Q111.73-15.67 116.39-18.55L116.39-18.55Q118.91-20.09 121.96-20.09L121.96-20.09Q123.76-20.09 125.62-19.34L125.62-19.34 126.21-19.09 126.21-28.37Q126.21-30.05 126.06-30.42L126.06-30.42Q125.72-31.27 123.32-31.27L123.32-31.27 123.2-32.1 129.21-33.62 129.21-2.95Q129.21-1.29 130.89-1.29L130.89-1.29Q131.02-1.29 131.91-1.4 132.8-1.51 132.87-1.51L132.87-1.51 132.87-0.51 127.21 0.81 126.33-1.66Q126.28-1.64 126.08-1.46L126.08-1.46Q123.32 0.81 120.61 0.81L120.61 0.81Q114.98 0.81 112.78-3.81L112.78-3.81Q111.73-6.05 111.73-8.72ZM114.88-9.94L114.88-9.94Q114.88-4.86 117.25-2.64L117.25-2.64Q118.78-1.22 121.07-1.21 123.35-1.2 124.77-2.49L124.77-2.49Q125.42-3.1 126.13-4.05L126.13-4.05 126.13-16.6Q125.57-17.75 123.79-18.24L123.79-18.24Q122.96-18.46 122.01-18.46L122.01-18.46Q118.27-18.46 116.24-14.82L116.24-14.82Q114.93-12.38 114.88-9.94ZM147.25-18.7L147.25-18.7 147.13-14.92 145.86-14.92Q145.71-17.43 144.34-18.26L144.34-18.26Q143.51-18.75 142.27-18.75L142.27-18.75Q140.92-18.75 140.23-17.91 139.53-17.07 139.53-15.75L139.53-15.75Q139.56-14.21 141.32-12.74L141.32-12.74 144.54-9.94Q146.54-8.15 147.14-6.97 147.74-5.79 147.74-4.61L147.74-4.61Q147.74-1.78 145.39-0.27L145.39-0.27Q143.71 0.81 141.14 0.78L141.14 0.78Q138.61 0.78 136.12-0.51L136.12-0.51 135.82-4.37 137.02-4.37Q137.51-2.27 138.31-1.45 139.12-0.63 141.05-0.63L141.05-0.63Q142.93-0.63 143.95-1.71 144.98-2.78 144.95-3.96L144.95-3.96Q144.95-5.59 142.76-7.52L142.76-7.52 139.53-10.28Q136.6-12.77 136.58-15.04L136.58-15.04Q136.58-17.72 138.4-18.91 140.22-20.09 142.59-20.09L142.59-20.09Q145.05-20.09 147.25-18.7ZM150.76-18.65L150.76-18.65 150.76-19.63 156.35-19.63 156.35-9.42Q156.35-9.08 156.28-7.08L156.28-7.08Q156.08-1.39 160.26-1.34L160.26-1.34Q162.58-1.34 164.29-3.2 166-5.05 166-7.4L166-7.4 166-13.33Q166-16.58 165.7-17.46L165.7-17.46Q165.31-18.63 162.92-18.63L162.92-18.63 162.92-19.63 169.02-19.63 169.02-5.3Q169.02-2.64 170.12-2.12L170.12-2.12Q170.63-1.9 172.07-1.98L172.07-1.98 172.2-1.12 166.87 0.71 166-2.51 165.19-1.73Q162.33 0.73 159.18 0.76L159.18 0.76Q155.28 0.76 154.03-2.22L154.03-2.22Q153.3-3.98 153.3-7.01L153.3-7.01 153.3-14.65Q153.3-17.65 152.06-18.46L152.06-18.46Q151.49-18.8 150.76-18.65ZM179.86-15.55L179.86-15.55Q178.42-13.01 178.42-9.58 178.42-6.15 180.3-4 182.18-1.86 185.08-1.84 187.99-1.83 190.41-3.08L190.41-3.08 191.19-2.22Q190.02-1.1 189.41-0.68L189.41-0.68Q187.21 0.78 184.38 0.81L184.38 0.81Q178.83 0.81 176.59-3.91L176.59-3.91Q175.39-6.4 175.39-9.47L175.39-9.47Q175.39-14.62 178.52-17.58L178.52-17.58Q181.18-20.09 184.69-20.09L184.69-20.09Q188.26-20.09 191.63-17.7L191.63-17.7Q192.04-17.43 191.73-16.38 191.41-15.33 190.41-14.92L190.41-14.92Q189.65-14.92 188.86-16.05 188.06-17.19 187.94-17.31L187.94-17.31Q186.75-18.63 184.82-18.65L184.82-18.65Q181.64-18.65 179.86-15.55ZM198.51-15.55L198.51-15.55Q197.07-13.01 197.07-9.58 197.07-6.15 198.95-4 200.83-1.86 203.73-1.84 206.64-1.83 209.06-3.08L209.06-3.08 209.84-2.22Q208.67-1.1 208.06-0.68L208.06-0.68Q205.86 0.78 203.03 0.81L203.03 0.81Q197.48 0.81 195.24-3.91L195.24-3.91Q194.04-6.4 194.04-9.47L194.04-9.47Q194.04-14.62 197.17-17.58L197.17-17.58Q199.83-20.09 203.34-20.09L203.34-20.09Q206.91-20.09 210.28-17.7L210.28-17.7Q210.69-17.43 210.38-16.38 210.06-15.33 209.06-14.92L209.06-14.92Q208.3-14.92 207.51-16.05 206.71-17.19 206.59-17.31L206.59-17.31Q205.39-18.63 203.47-18.65L203.47-18.65Q200.29-18.65 198.51-15.55ZM221.36-20.17L221.36-20.17Q226.05-20.17 227.24-16.5L227.24-16.5Q227.78-14.84 227.54-13.26L227.54-13.26 215.84-13.26Q215.52-11.5 215.52-9.99L215.52-9.99Q215.52-4.83 218.6-2.95L218.6-2.95Q220.24-1.95 222.53-1.95L222.53-1.95Q224.92-1.95 227.34-3.71L227.34-3.71 228.05-2.98 227.37-2.17Q224.58 0.73 220.77 0.76L220.77 0.76Q218.5 0.76 216.57-0.61L216.57-0.61Q212.69-3.37 212.69-8.96L212.69-8.96Q212.69-14.87 215.99-17.92L215.99-17.92Q218.48-20.09 221.36-20.17ZM216.09-14.84L216.09-14.84 224.39-14.84Q224.39-16.77 223.51-17.71 222.63-18.65 221.26-18.65L221.26-18.65Q219.14-18.65 217.79-17.4 216.45-16.14 216.09-14.84ZM242.84-18.7L242.84-18.7 242.72-14.92 241.45-14.92Q241.3-17.43 239.94-18.26L239.94-18.26Q239.11-18.75 237.86-18.75L237.86-18.75Q236.52-18.75 235.82-17.91 235.13-17.07 235.13-15.75L235.13-15.75Q235.15-14.21 236.91-12.74L236.91-12.74 240.13-9.94Q242.13-8.15 242.73-6.97 243.33-5.79 243.33-4.61L243.33-4.61Q243.33-1.78 240.99-0.27L240.99-0.27Q239.3 0.81 236.74 0.78L236.74 0.78Q234.2 0.78 231.71-0.51L231.71-0.51 231.42-4.37 232.61-4.37Q233.1-2.27 233.91-1.45 234.71-0.63 236.64-0.63L236.64-0.63Q238.52-0.63 239.55-1.71 240.57-2.78 240.55-3.96L240.55-3.96Q240.55-5.59 238.35-7.52L238.35-7.52 235.13-10.28Q232.2-12.77 232.17-15.04L232.17-15.04Q232.17-17.72 233.99-18.91 235.81-20.09 238.18-20.09L238.18-20.09Q240.64-20.09 242.84-18.7ZM258.76-18.7L258.76-18.7 258.63-14.92 257.36-14.92Q257.22-17.43 255.85-18.26L255.85-18.26Q255.02-18.75 253.78-18.75L253.78-18.75Q252.43-18.75 251.74-17.91 251.04-17.07 251.04-15.75L251.04-15.75Q251.07-14.21 252.82-12.74L252.82-12.74 256.05-9.94Q258.05-8.15 258.65-6.97 259.24-5.79 259.24-4.61L259.24-4.61Q259.24-1.78 256.9-0.27L256.9-0.27Q255.22 0.81 252.65 0.78L252.65 0.78Q250.11 0.78 247.62-0.51L247.62-0.51 247.33-4.37 248.53-4.37Q249.02-2.27 249.82-1.45 250.63-0.63 252.56-0.63L252.56-0.63Q254.44-0.63 255.46-1.71 256.49-2.78 256.46-3.96L256.46-3.96Q256.46-5.59 254.26-7.52L254.26-7.52 251.04-10.28Q248.11-12.77 248.09-15.04L248.09-15.04Q248.09-17.72 249.91-18.91 251.73-20.09 254.09-20.09L254.09-20.09Q256.56-20.09 258.76-18.7Z" opacity="1" transform="matrix(1,0,0,1,0,0)" fill="#ffffff" class="wordmark-text-0" data-fill-palette-color="primary" id="text-0"></path></svg></g></svg></g><g transform="matrix(1,0,0,1,0,94.4425707720329)"><svg viewBox="0 0 232.209792 26.07068585148955" height="26.07068585148955" width="232.209792"><g transform="matrix(1,0,0,1,0,0)"><svg width="232.209792" viewBox="2.85 -39.65 449.75 50.5" height="26.07068585148955" data-palette-color="#000000"><path d="M26.5-27.15Q29.15-27.15 30.75-25.1 32.35-23.05 32.35-19.6L32.35-19.6 32.35 0 26.3 0 26.3-18.95Q26.3-20.85 25.8-21.68 25.3-22.5 24.35-22.5L24.35-22.5Q22.4-22.5 20.6-18.8L20.6-18.8 20.6 0 14.6 0 14.6-18.95Q14.6-22.5 12.7-22.5L12.7-22.5Q10.65-22.5 8.9-18.8L8.9-18.8 8.9 0 2.85 0 2.85-26.45 8.2-26.45 8.6-23.05Q11.2-27.15 14.85-27.15L14.85-27.15Q16.7-27.15 18.05-26 19.4-24.85 20.1-22.75L20.1-22.75Q22.75-27.15 26.5-27.15L26.5-27.15ZM54.75-6.4Q54.75-5.1 55.1-4.48 55.45-3.85 56.25-3.45L56.25-3.45 55 0.65Q52.95 0.4 51.72-0.45 50.5-1.3 49.9-3.05L49.9-3.05Q47.6 0.75 43.45 0.75L43.45 0.75Q40.15 0.75 38.2-1.48 36.25-3.7 36.25-7.4L36.25-7.4Q36.25-11.7 38.92-13.95 41.6-16.2 46.7-16.2L46.7-16.2 48.75-16.2 48.75-18.05Q48.75-20.55 47.87-21.58 47-22.6 45.05-22.6L45.05-22.6Q42.7-22.6 39.2-21.3L39.2-21.3 37.8-25.3Q39.8-26.2 41.95-26.68 44.1-27.15 46.05-27.15L46.05-27.15Q54.75-27.15 54.75-18.35L54.75-18.35 54.75-6.4ZM45.1-3.7Q47.5-3.7 48.75-7L48.75-7 48.75-12.55 47.3-12.55Q44.75-12.55 43.57-11.4 42.4-10.25 42.4-7.85L42.4-7.85Q42.4-5.8 43.1-4.75 43.8-3.7 45.1-3.7L45.1-3.7ZM72.2-27.1Q73.35-27.1 74.25-26.75L74.25-26.75 73.25-20.85Q72.25-21.1 71.4-21.1L71.4-21.1Q69.5-21.1 68.4-19.45 67.3-17.8 66.7-14.55L66.7-14.55 66.7 0 60.55 0 60.55-26.45 65.9-26.45 66.35-21.85Q68.2-27.1 72.2-27.1L72.2-27.1ZM77.09-37.05L83.24-37.7 83.24 0 77.09 0 77.09-37.05ZM90.59-26.45L96.59-26.45 89.59-14.75 97.19 0 90.59 0 83.49-14.45 90.59-26.45ZM118.59-13.85Q118.59-13.4 118.44-11.3L118.44-11.3 104.79-11.3Q104.99-7.2 106.22-5.58 107.44-3.95 109.69-3.95L109.69-3.95Q111.24-3.95 112.49-4.48 113.74-5 115.19-6.15L115.19-6.15 117.74-2.65Q114.24 0.75 109.34 0.75L109.34 0.75Q104.14 0.75 101.37-2.85 98.59-6.45 98.59-13L98.59-13Q98.59-19.55 101.24-23.35 103.89-27.15 108.74-27.15L108.74-27.15Q113.39-27.15 115.99-23.78 118.59-20.4 118.59-13.85L118.59-13.85ZM112.59-15.3L112.59-15.65Q112.59-19.4 111.69-21.13 110.79-22.85 108.79-22.85L108.79-22.85Q106.94-22.85 105.97-21.18 104.99-19.5 104.79-15.3L104.79-15.3 112.59-15.3ZM134.04-5L136.19-1.2Q133.74 0.75 130.44 0.75L130.44 0.75Q126.99 0.75 125.19-1.23 123.39-3.2 123.39-6.6L123.39-6.6 123.39-22 120.29-22 120.29-26.45 123.39-26.45 123.39-32.3 129.54-33.05 129.54-26.45 134.54-26.45 133.94-22 129.54-22 129.54-6.6Q129.54-4.2 131.59-4.2L131.59-4.2Q132.24-4.2 132.74-4.38 133.24-4.55 134.04-5L134.04-5ZM138.74-26.45L144.89-26.45 144.89 0 138.74 0 138.74-26.45ZM141.79-39.65Q143.44-39.65 144.46-38.6 145.49-37.55 145.49-35.9L145.49-35.9Q145.49-34.3 144.46-33.25 143.44-32.2 141.79-32.2L141.79-32.2Q140.14-32.2 139.11-33.25 138.09-34.3 138.09-35.9L138.09-35.9Q138.09-37.55 139.11-38.6 140.14-39.65 141.79-39.65L141.79-39.65ZM162.93-27.15Q165.78-27.15 167.43-25.1 169.08-23.05 169.08-19.6L169.08-19.6 169.08 0 162.93 0 162.93-18.9Q162.93-20.8 162.41-21.63 161.88-22.45 160.88-22.45L160.88-22.45Q158.78-22.45 156.73-18.5L156.73-18.5 156.73 0 150.58 0 150.58-26.45 155.93-26.45 156.38-23Q157.73-25.1 159.26-26.13 160.78-27.15 162.93-27.15L162.93-27.15ZM192.58-29.85L194.13-25.1Q193.08-24.6 191.61-24.4 190.13-24.2 187.93-24.2L187.93-24.2Q190.03-23.2 191.06-21.53 192.08-19.85 192.08-17.4L192.08-17.4Q192.08-13.4 189.63-10.95 187.18-8.5 182.98-8.5L182.98-8.5Q181.73-8.5 180.43-8.9L180.43-8.9Q179.53-8.15 179.53-6.85L179.53-6.85Q179.53-5.85 180.08-5.35 180.63-4.85 182.13-4.85L182.13-4.85 184.93-4.85Q188.93-4.85 191.28-2.78 193.63-0.7 193.63 2.5L193.63 2.5Q193.63 6.3 190.71 8.58 187.78 10.85 182.38 10.85L182.38 10.85Q176.68 10.85 174.41 8.75 172.13 6.65 172.13 2.6L172.13 2.6 177.58 2.6Q177.58 4.75 178.58 5.65 179.58 6.55 182.43 6.55L182.43 6.55Q185.18 6.55 186.33 5.6 187.48 4.65 187.48 2.9L187.48 2.9Q187.48 1.2 186.53 0.4 185.58-0.4 183.58-0.4L183.58-0.4 181.68-0.4Q177.88-0.4 176.13-1.75 174.38-3.1 174.38-5.45L174.38-5.45Q174.38-6.8 175.11-8.03 175.83-9.25 177.08-10.2L177.08-10.2Q175.03-11.5 174.08-13.3 173.13-15.1 173.13-17.7L173.13-17.7Q173.13-22.05 175.73-24.58 178.33-27.1 182.73-27.1L182.73-27.1Q185.98-27.1 188.11-27.8 190.23-28.5 192.58-29.85L192.58-29.85ZM182.73-23Q180.98-23 180.08-21.75 179.18-20.5 179.18-17.8L179.18-17.8Q179.18-15.25 180.08-13.88 180.98-12.5 182.68-12.5L182.68-12.5Q184.43-12.5 185.28-13.73 186.13-14.95 186.13-17.85L186.13-17.85Q186.13-20.55 185.31-21.78 184.48-23 182.73-23L182.73-23ZM217.88-5L220.03-1.2Q217.58 0.75 214.28 0.75L214.28 0.75Q210.83 0.75 209.03-1.23 207.23-3.2 207.23-6.6L207.23-6.6 207.23-22 204.13-22 204.13-26.45 207.23-26.45 207.23-32.3 213.38-33.05 213.38-26.45 218.38-26.45 217.78-22 213.38-22 213.38-6.6Q213.38-4.2 215.43-4.2L215.43-4.2Q216.08-4.2 216.58-4.38 217.08-4.55 217.88-5L217.88-5ZM234.92-27.15Q237.77-27.15 239.42-25.1 241.07-23.05 241.07-19.6L241.07-19.6 241.07 0 234.92 0 234.92-18.9Q234.92-20.8 234.4-21.63 233.87-22.45 232.87-22.45L232.87-22.45Q230.77-22.45 228.72-18.5L228.72-18.5 228.72 0 222.57 0 222.57-37 228.72-37.65 228.72-23.3Q229.97-25.25 231.45-26.2 232.92-27.15 234.92-27.15L234.92-27.15ZM265.47-13.85Q265.47-13.4 265.32-11.3L265.32-11.3 251.67-11.3Q251.87-7.2 253.1-5.58 254.32-3.95 256.57-3.95L256.57-3.95Q258.12-3.95 259.37-4.48 260.62-5 262.07-6.15L262.07-6.15 264.62-2.65Q261.12 0.75 256.22 0.75L256.22 0.75Q251.02 0.75 248.25-2.85 245.47-6.45 245.47-13L245.47-13Q245.47-19.55 248.12-23.35 250.77-27.15 255.62-27.15L255.62-27.15Q260.27-27.15 262.87-23.78 265.47-20.4 265.47-13.85L265.47-13.85ZM259.47-15.3L259.47-15.65Q259.47-19.4 258.57-21.13 257.67-22.85 255.67-22.85L255.67-22.85Q253.82-22.85 252.85-21.18 251.87-19.5 251.67-15.3L251.67-15.3 259.47-15.3ZM291.27-27.1Q292.42-27.1 293.32-26.75L293.32-26.75 292.32-20.85Q291.32-21.1 290.47-21.1L290.47-21.1Q288.57-21.1 287.47-19.45 286.37-17.8 285.77-14.55L285.77-14.55 285.77 0 279.62 0 279.62-26.45 284.97-26.45 285.42-21.85Q287.27-27.1 291.27-27.1L291.27-27.1ZM296.16-26.45L302.31-26.45 302.31 0 296.16 0 296.16-26.45ZM299.21-39.65Q300.86-39.65 301.89-38.6 302.91-37.55 302.91-35.9L302.91-35.9Q302.91-34.3 301.89-33.25 300.86-32.2 299.21-32.2L299.21-32.2Q297.56-32.2 296.54-33.25 295.51-34.3 295.51-35.9L295.51-35.9Q295.51-37.55 296.54-38.6 297.56-39.65 299.21-39.65L299.21-39.65ZM325.96-29.85L327.51-25.1Q326.46-24.6 324.99-24.4 323.51-24.2 321.31-24.2L321.31-24.2Q323.41-23.2 324.44-21.53 325.46-19.85 325.46-17.4L325.46-17.4Q325.46-13.4 323.01-10.95 320.56-8.5 316.36-8.5L316.36-8.5Q315.11-8.5 313.81-8.9L313.81-8.9Q312.91-8.15 312.91-6.85L312.91-6.85Q312.91-5.85 313.46-5.35 314.01-4.85 315.51-4.85L315.51-4.85 318.31-4.85Q322.31-4.85 324.66-2.78 327.01-0.7 327.01 2.5L327.01 2.5Q327.01 6.3 324.09 8.58 321.16 10.85 315.76 10.85L315.76 10.85Q310.06 10.85 307.79 8.75 305.51 6.65 305.51 2.6L305.51 2.6 310.96 2.6Q310.96 4.75 311.96 5.65 312.96 6.55 315.81 6.55L315.81 6.55Q318.56 6.55 319.71 5.6 320.86 4.65 320.86 2.9L320.86 2.9Q320.86 1.2 319.91 0.4 318.96-0.4 316.96-0.4L316.96-0.4 315.06-0.4Q311.26-0.4 309.51-1.75 307.76-3.1 307.76-5.45L307.76-5.45Q307.76-6.8 308.49-8.03 309.21-9.25 310.46-10.2L310.46-10.2Q308.41-11.5 307.46-13.3 306.51-15.1 306.51-17.7L306.51-17.7Q306.51-22.05 309.11-24.58 311.71-27.1 316.11-27.1L316.11-27.1Q319.36-27.1 321.49-27.8 323.61-28.5 325.96-29.85L325.96-29.85ZM316.11-23Q314.36-23 313.46-21.75 312.56-20.5 312.56-17.8L312.56-17.8Q312.56-15.25 313.46-13.88 314.36-12.5 316.06-12.5L316.06-12.5Q317.81-12.5 318.66-13.73 319.51-14.95 319.51-17.85L319.51-17.85Q319.51-20.55 318.69-21.78 317.86-23 316.11-23L316.11-23ZM342.61-27.15Q345.46-27.15 347.11-25.1 348.76-23.05 348.76-19.6L348.76-19.6 348.76 0 342.61 0 342.61-18.9Q342.61-20.8 342.08-21.63 341.56-22.45 340.56-22.45L340.56-22.45Q338.46-22.45 336.41-18.5L336.41-18.5 336.41 0 330.26 0 330.26-37 336.41-37.65 336.41-23.3Q337.66-25.25 339.13-26.2 340.61-27.15 342.61-27.15L342.61-27.15ZM365.46-5L367.61-1.2Q365.16 0.75 361.86 0.75L361.86 0.75Q358.41 0.75 356.61-1.23 354.81-3.2 354.81-6.6L354.81-6.6 354.81-22 351.71-22 351.71-26.45 354.81-26.45 354.81-32.3 360.96-33.05 360.96-26.45 365.96-26.45 365.36-22 360.96-22 360.96-6.6Q360.96-4.2 363.01-4.2L363.01-4.2Q363.66-4.2 364.16-4.38 364.66-4.55 365.46-5L365.46-5ZM402.05-26.45L407.75-26.45 403.2 0 395.7 0 392.75-20.85 389.85 0 382.4 0 377.75-26.45 383.7-26.45 386.4-4.6 389.75-26.45 396-26.45 399.2-4.6 402.05-26.45ZM428.15-6.4Q428.15-5.1 428.5-4.48 428.85-3.85 429.65-3.45L429.65-3.45 428.4 0.65Q426.35 0.4 425.12-0.45 423.9-1.3 423.3-3.05L423.3-3.05Q421 0.75 416.85 0.75L416.85 0.75Q413.55 0.75 411.6-1.48 409.65-3.7 409.65-7.4L409.65-7.4Q409.65-11.7 412.32-13.95 415-16.2 420.1-16.2L420.1-16.2 422.15-16.2 422.15-18.05Q422.15-20.55 421.27-21.58 420.4-22.6 418.45-22.6L418.45-22.6Q416.1-22.6 412.6-21.3L412.6-21.3 411.2-25.3Q413.2-26.2 415.35-26.68 417.5-27.15 419.45-27.15L419.45-27.15Q428.15-27.15 428.15-18.35L428.15-18.35 428.15-6.4ZM418.5-3.7Q420.9-3.7 422.15-7L422.15-7 422.15-12.55 420.7-12.55Q418.15-12.55 416.97-11.4 415.8-10.25 415.8-7.85L415.8-7.85Q415.8-5.8 416.5-4.75 417.2-3.7 418.5-3.7L418.5-3.7ZM452.6-26.45L445.6 0.1Q444.3 4.9 441.4 7.65 438.5 10.4 433.65 10.85L433.65 10.85 432.95 6.5Q436.1 5.85 437.67 4.42 439.25 3 440.15 0L440.15 0 437.85 0 431.15-26.45 437.4-26.45 441.8-4.1 446.5-26.45 452.6-26.45Z" opacity="1" transform="matrix(1,0,0,1,0,0)" fill="#ffffff" class="slogan-text-1" data-fill-palette-color="secondary" id="text-1"></path></svg></g></svg></g></svg></g></svg></g><g><svg viewBox="0 0 166.549320653708 166.549320653708" height="166.549320653708" width="166.549320653708"><g><svg xmlns="http://www.w3.org/2000/svg" xmlns:xlink="http://www.w3.org/1999/xlink" version="1.1" x="0" y="0" viewBox="5 5 90 90" enable-background="new 0 0 100 100" xml:space="preserve" height="166.549320653708" width="166.549320653708" class="icon-icon-0" data-fill-palette-color="accent" id="icon-0"><path d="M56.586 71.031A1.17 1.17 0 0 1 56.071 72.002C55.961 72.082 55.835 72.145 55.697 72.184L52.206 73.359H53.817A0.837 0.837 0 0 1 54.553 74.596 5.198 5.198 0 0 1 45.425 74.596 0.85 0.85 0 0 1 45.402 73.839C45.492 73.483 45.758 73.179 46.159 73.062L48.714 72.204H44.56A1.172 1.172 0 0 1 43.68 70.261C43.829 70.059 44.049 69.899 44.314 69.821L48.01 68.706H44.56A1.171 1.171 0 0 1 44.56 66.363H55.417C55.925 66.363 56.357 66.687 56.52 67.14 56.541 67.185 56.56 67.232 56.574 67.281 56.746 67.867 56.383 68.491 55.762 68.672L51.824 69.864H55.419A1.165 1.165 0 0 1 56.586 71.031" fill="#ffffff" data-fill-palette-color="accent"></path><path d="M50 17.591L51.8 26.312 55.382 18.16 55.33 27.062 60.52 19.834 58.619 28.528 65.204 22.533 61.538 30.646 69.221 26.155 63.952 33.322 72.4 30.526 65.752 36.445 74.598 35.469 66.869 39.875 75.726 40.755 67.246 43.461 75.726 46.161 66.869 47.046 74.598 51.451 65.752 50.471 72.4 56.391 63.952 53.594 69.221 60.772 62.497 56.839 69.383 69.537 60.36 60.589 66.486 78.403 56.83 63.116A1.64 1.64 0 0 0 57.041 62.326C57.041 59.511 57.917 57.554 59.054 55.753 61.134 52.449 64.088 49.668 64.088 43.075 64.088 35.295 57.779 28.988 50 28.988 42.219 28.988 35.913 35.295 35.913 43.075 35.913 53.259 42.954 54.346 42.954 62.326 42.954 62.569 43.019 62.81 43.13 63.036L33.519 78.023 39.543 60.721 31.899 68.34 37.869 56.623 30.778 60.771 36.049 53.594 27.599 56.391 34.248 50.475 25.396 51.452 33.13 47.046 24.274 46.166 32.753 43.46 24.274 40.754 33.128 39.875 25.394 35.469 34.246 36.445 27.597 30.526 36.047 33.322 30.776 26.151 38.461 30.647 34.795 22.535 41.378 28.525 39.477 19.829 44.667 27.061 44.622 18.159 48.198 26.311zM74.598 35.47H74.603M50 7.697L48.041 17.186 47.509 19.76 46.454 17.355 42.574 8.51 42.623 18.169 42.636 20.799 41.103 18.662 35.456 10.792 37.524 20.255 38.086 22.823 36.142 21.054 28.994 14.551 32.973 23.358 34.055 25.751 31.787 24.424 23.435 19.537 29.165 27.334 30.722 29.452 28.226 28.626 19.045 25.588 26.268 32.018 28.235 33.769 25.615 33.48 16.007 32.421 24.405 37.206 26.685 38.505 24.078 38.764 14.455 39.72 23.668 42.66 26.176 43.46 23.668 44.26 14.457 47.199 24.078 48.156 26.687 48.415 24.407 49.713 16.005 54.499 25.616 53.439 28.232 53.15 26.27 54.896 19.038 61.331 28.228 58.289 30.727 57.462 29.167 59.587 23.445 67.379 31.789 62.497 32.99 61.794 30.118 67.431 24.416 78.622 33.312 69.756 34.794 68.277 31.63 77.364 26.062 93.354 35.202 79.101 44.813 64.114 44.953 62.211C44.922 57.903 43.129 55.331 41.395 52.843 39.604 50.274 37.913 47.847 37.913 43.073 37.913 36.408 43.335 30.986 50 30.986S62.088 36.408 62.088 43.073C62.088 47.846 60.396 50.273 58.605 52.841 58.191 53.435 57.763 54.049 57.362 54.686 56.227 56.484 55.066 58.785 55.042 62.217L55.14 64.183 64.795 79.472 73.958 93.98 68.378 77.753 65.039 68.046 67.976 70.957 77.61 80.511 71.142 68.584 67.67 62.181 68.212 62.498 76.549 67.374 70.834 59.588 69.273 57.462 71.772 58.289 80.955 61.329 73.731 54.896 71.769 53.149 74.377 53.439 83.995 54.504 75.588 49.713 73.305 48.412 75.925 48.15 85.547 47.188 76.332 44.254 73.831 43.458 76.333 42.66 85.546 39.721 75.924 38.764 73.31 38.504 75.588 37.205 83.982 32.421 74.378 33.48 71.765 33.768 73.731 32.018 80.954 25.587 71.773 28.625 69.28 29.45 70.833 27.338 76.561 19.547 68.212 24.427 65.944 25.753 67.027 23.356 71.009 14.543 63.858 21.053 61.915 22.823 62.476 20.26 64.543 10.804 58.897 18.666 57.367 20.795 57.383 18.17 57.439 8.507 53.552 17.353 52.492 19.765 51.96 17.185z" fill="#ffffff" data-fill-palette-color="accent"></path></svg></g></svg></g></svg></g><defs></defs></svg><rect width="395.52" height="113.5542521237782" fill="none" stroke="none" visibility="hidden"></rect></g></svg></g></svg>